# xmcd
#
# Track frame offsets:
#	150
#	13882
#	29552
#	44445
#	56610
#	71630
#	86067
#	98830
#	118977
#	135407
#	148747
#	163400
#
# Disc length: 2372 seconds
#
# Revision: 1
# Processed by: cddbd v1.4b42PL1 Copyright (c) Steve Scherf et al.
# Submitted via: CDmax 1.8
#
DISCID=b509420c
DTITLE=Derailers - Here Come The Derailers
DYEAR=2001
DGENRE=Country
TTITLE0=More Of Your Love
TTITLE1=Bar Exam
TTITLE2=You Know What She's Like
TTITLE3=Your Guess Is Good As Mine
TTITLE4=I See My Baby
TTITLE5=Country A Go-Go
TTITLE6=I'd Follow You Anywhere
TTITLE7=All The Rage In Paris
TTITLE8=My Angel's Gettin' Tired
TTITLE9=Mohair Sam
TTITLE10=If It's Really Got To Be This Way
TTITLE11=There Goes The Bride
EXTD=
EXTT0=
EXTT1=
EXTT2=
EXTT3=
EXTT4=
EXTT5=
EXTT6=
EXTT7=
EXTT8=
EXTT9=
EXTT10=
EXTT11=
PLAYORDER=
